<svg width="54" height="54" viewBox="0 0 54 54" fill="none" xmlns="http://www.w3.org/2000/svg">
<path d="M46.5183 40.23C48.0778 37.503 49.0727 34.209 47.8896 30.375C46.4645 25.731 42.4042 22.14 37.5642 21.681C35.7693 21.4886 33.9544 21.7021 32.2524 22.3057C30.5504 22.9094 29.0045 23.8879 27.7282 25.1695C26.4518 26.4511 25.4773 28.0033 24.8762 29.7123C24.275 31.4213 24.0624 33.2438 24.254 35.046C24.738 39.879 28.2874 43.983 32.9123 45.414C36.7575 46.602 40.0111 45.603 42.7269 44.037L49.4492 50.787C50.4978 51.84 52.165 51.84 53.2137 50.787C53.4628 50.5399 53.6605 50.2456 53.7955 49.9212C53.9305 49.5967 54 49.2486 54 48.897C54 48.5454 53.9305 48.1973 53.7955 47.8728C53.6605 47.5484 53.4628 47.2541 53.2137 47.007L46.5183 40.23ZM36.3004 40.5C32.5359 40.5 29.5781 37.53 29.5781 33.75C29.5781 29.97 32.5359 27 36.3004 27C40.0649 27 43.0227 29.97 43.0227 33.75C43.0227 37.53 40.0649 40.5 36.3004 40.5ZM26.8892 48.6V54C12.0463 54 0 41.904 0 27C0 12.096 12.0463 0 26.8892 0C39.9035 0 50.7399 9.288 53.2405 21.6H47.6745C46.8358 18.338 45.2489 15.3181 43.0405 12.7818C40.8321 10.2455 38.0635 8.26313 34.9559 6.993V8.1C34.9559 11.07 32.5359 13.5 29.5781 13.5H24.2002V18.9C24.2002 20.385 22.9902 21.6 21.5113 21.6H16.1335V27H21.5113V35.1H18.8224L5.94251 22.167C5.59295 23.733 5.37783 25.326 5.37783 27C5.37783 38.907 15.031 48.6 26.8892 48.6Z" fill="#F58634"/>
</svg>
