<svg width="17" height="28" viewBox="0 0 17 28" fill="none" xmlns="http://www.w3.org/2000/svg">
<path fill-rule="evenodd" clip-rule="evenodd" d="M6.31959 2.20841C7.78756 0.79462 9.77863 0.000236562 11.8548 0H15.881C16.1776 0 16.4621 0.113461 16.6718 0.315423C16.8815 0.517386 16.9994 0.791305 16.9994 1.07692V6.24615C16.9994 6.53177 16.8815 6.80569 16.6718 7.00765C16.4621 7.20962 16.1776 7.32308 15.881 7.32308H11.8548C11.8255 7.32308 11.7964 7.32865 11.7692 7.33947C11.7421 7.3503 11.7174 7.36616 11.6967 7.38616C11.6759 7.40616 11.6594 7.42991 11.6482 7.45604C11.6369 7.48217 11.6312 7.51018 11.6312 7.53846V10.3385H15.881C16.051 10.3384 16.2188 10.3756 16.3717 10.4473C16.5245 10.5191 16.6583 10.6234 16.763 10.7525C16.8677 10.8815 16.9404 11.0318 16.9757 11.1919C17.0109 11.3521 17.0078 11.5179 16.9666 11.6767L15.6245 16.8459C15.564 17.079 15.4242 17.2859 15.2275 17.4337C15.0308 17.5815 14.7884 17.6617 14.5389 17.6615H11.6312V26.9231C11.6312 27.2087 11.5133 27.4826 11.3036 27.6846C11.0939 27.8865 10.8094 28 10.5128 28H5.14455C4.84794 28 4.56347 27.8865 4.35373 27.6846C4.144 27.4826 4.02617 27.2087 4.02617 26.9231V17.6615H1.11838C0.821767 17.6615 0.537303 17.5481 0.327566 17.3461C0.117829 17.1442 0 16.8702 0 16.5846V11.4154C0 11.274 0.0289277 11.1339 0.0851315 11.0033C0.141335 10.8726 0.223715 10.7539 0.327566 10.6539C0.431417 10.5539 0.554706 10.4746 0.690395 10.4204C0.826083 10.3663 0.971512 10.3385 1.11838 10.3385H4.02617V7.53846C4.02641 5.53923 4.85138 3.62196 6.31959 2.20841ZM11.8548 2.15385C10.3718 2.15385 8.94944 2.72115 7.90076 3.73096C6.85207 4.74078 6.26293 6.11037 6.26293 7.53846V11.4154C6.26293 11.701 6.1451 11.9749 5.93536 12.1769C5.72563 12.3788 5.44116 12.4923 5.14455 12.4923H2.23676V15.5077H5.14455C5.44116 15.5077 5.72563 15.6212 5.93536 15.8231C6.1451 16.0251 6.26293 16.299 6.26293 16.5846V25.8462H9.39439V16.5846C9.39439 16.299 9.51222 16.0251 9.72196 15.8231C9.93169 15.6212 10.2162 15.5077 10.5128 15.5077H13.6651L14.448 12.4923H10.5128C10.2162 12.4923 9.93169 12.3788 9.72196 12.1769C9.51222 11.9749 9.39439 11.701 9.39439 11.4154V7.53846C9.39439 6.9101 9.65362 6.30748 10.115 5.86316C10.5765 5.41885 11.2023 5.16923 11.8548 5.16923H14.7626V2.15385H11.8548Z" fill="black"/>
</svg>
