<svg width="48" height="52" viewBox="0 0 48 52" fill="none" xmlns="http://www.w3.org/2000/svg">
<path d="M0 23.3708C0 10.4631 10.7448 0 24 0C37.2552 0 48 10.4631 48 23.3708V35.4161C48 39.2629 44.592 42.0674 40.8 42.0674H33.6V23.3708H43.2C43.2 18.4121 41.1772 13.6566 37.5765 10.1503C33.9758 6.64398 29.0922 4.67416 24 4.67416C18.9078 4.67416 14.0242 6.64398 10.4236 10.1503C6.82285 13.6566 4.8 18.4121 4.8 23.3708H14.4V42.0674H9.7512C10.0173 43.0709 10.6184 43.9599 11.4599 44.5945C12.3014 45.2291 13.3357 45.5733 14.4 45.573H18.1536C18.912 44.5143 20.172 43.8202 21.6 43.8202H26.4C27.5139 43.8202 28.5822 44.2511 29.3699 45.0181C30.1575 45.7851 30.6 46.8254 30.6 47.9101C30.6 48.9948 30.1575 50.0351 29.3699 50.8021C28.5822 51.5691 27.5139 52 26.4 52H21.6C20.172 52 18.912 51.3059 18.1536 50.2472H14.4C11.995 50.2475 9.67746 49.3687 7.90596 47.7847C6.13446 46.2007 5.03803 44.027 4.8336 41.6935C2.0976 40.8124 0 38.4356 0 35.4184V23.3708ZM9.6 37.3933V28.0449H4.8V35.4161C4.8 36.3346 5.688 37.3933 7.2 37.3933H9.6ZM43.2 28.0449H38.4V37.3933H40.8C42.312 37.3933 43.2 36.3346 43.2 35.4161V28.0449Z" fill="#F58634"/>
</svg>
