<svg width="50" height="51" viewBox="0 0 50 51" fill="none" xmlns="http://www.w3.org/2000/svg">
<path d="M40.3022 4.86406C40.3022 6.15409 39.7898 7.39129 38.8776 8.30348C37.9654 9.21566 36.7282 9.72813 35.4382 9.72813C34.1481 9.72813 32.9109 9.21566 31.9987 8.30348C31.0866 7.39129 30.5741 6.15409 30.5741 4.86406C30.5741 3.57403 31.0866 2.33684 31.9987 1.42465C32.9109 0.512463 34.1481 0 35.4382 0C36.7282 0 37.9654 0.512463 38.8776 1.42465C39.7898 2.33684 40.3022 3.57403 40.3022 4.86406Z" fill="#12AE65"/>
<path fill-rule="evenodd" clip-rule="evenodd" d="M35.4382 6.94866C35.991 6.94866 36.5213 6.72903 36.9122 6.3381C37.3031 5.94716 37.5228 5.41693 37.5228 4.86406C37.5228 4.31119 37.3031 3.78097 36.9122 3.39003C36.5213 2.99909 35.991 2.77946 35.4382 2.77946C34.8853 2.77946 34.3551 2.99909 33.9641 3.39003C33.5732 3.78097 33.3536 4.31119 33.3536 4.86406C33.3536 5.41693 33.5732 5.94716 33.9641 6.3381C34.3551 6.72903 34.8853 6.94866 35.4382 6.94866ZM35.4382 9.72813C36.0769 9.72813 36.7094 9.60231 37.2996 9.35787C37.8897 9.11343 38.4259 8.75514 38.8776 8.30347C39.3292 7.8518 39.6875 7.31559 39.932 6.72546C40.1764 6.13532 40.3022 5.50282 40.3022 4.86406C40.3022 4.22531 40.1764 3.5928 39.932 3.00267C39.6875 2.41253 39.3292 1.87632 38.8776 1.42465C38.4259 0.972981 37.8897 0.614697 37.2996 0.370255C36.7094 0.125813 36.0769 -9.51823e-09 35.4382 0C34.1481 1.92229e-08 32.9109 0.512463 31.9988 1.42465C31.0866 2.33684 30.5741 3.57403 30.5741 4.86406C30.5741 6.15409 31.0866 7.39129 31.9988 8.30347C32.9109 9.21566 34.1481 9.72813 35.4382 9.72813ZM18.0665 13.8973C17.3294 13.8973 16.6224 14.1902 16.1011 14.7114C15.5799 15.2327 15.287 15.9396 15.287 16.6768C15.287 17.4139 15.5799 18.1209 16.1011 18.6422C16.6224 19.1634 17.3294 19.4563 18.0665 19.4563H27.7946V47.2509C27.7946 47.9881 28.0875 48.695 28.6087 49.2163C29.13 49.7375 29.8369 50.0304 30.5741 50.0304C31.3113 50.0304 32.0182 49.7375 32.5395 49.2163C33.0607 48.695 33.3536 47.9881 33.3536 47.2509V34.7433H37.5228V47.2509C37.5228 47.9881 37.8156 48.695 38.3369 49.2163C38.8581 49.7375 39.5651 50.0304 40.3022 50.0304C41.0394 50.0304 41.7464 49.7375 42.2676 49.2163C42.7889 48.695 43.0817 47.9881 43.0817 47.2509V30.4588C45.1386 30.1047 46.988 28.9925 48.2649 27.3415C49.5418 25.6905 50.1533 23.6208 49.9788 21.541C49.8043 19.4611 48.8564 17.5223 47.3222 16.1072C45.788 14.6921 43.7791 13.9036 41.692 13.8973H18.0665ZM45.8612 22.2357C45.8612 21.4986 45.5683 20.7916 45.0471 20.2703C44.5258 19.7491 43.8189 19.4563 43.0817 19.4563V25.0152C43.8189 25.0152 44.5258 24.7223 45.0471 24.2011C45.5683 23.6798 45.8612 22.9729 45.8612 22.2357Z" fill="#12AE65"/>
<path fill-rule="evenodd" clip-rule="evenodd" d="M0 36.1331C0 35.3959 0.292836 34.6889 0.814086 34.1677C1.33534 33.6464 2.0423 33.3536 2.77946 33.3536H20.846C21.5831 33.3536 22.2901 33.6464 22.8114 34.1677C23.3326 34.6889 23.6255 35.3959 23.6255 36.1331V47.2509C23.6255 47.9881 23.3326 48.6951 22.8114 49.2163C22.2901 49.7376 21.5831 50.0304 20.846 50.0304H2.77946C2.0423 50.0304 1.33534 49.7376 0.814086 49.2163C0.292836 48.6951 0 47.9881 0 47.2509V36.1331ZM5.55893 45.8612V37.5228H8.33839V45.8612H5.55893ZM15.2871 37.5228V45.8612H18.0665V37.5228H15.2871ZM6.94866 30.5741C6.94866 29.837 7.2415 29.13 7.76275 28.6088C8.284 28.0875 8.99097 27.7947 9.72813 27.7947H13.8973C14.6345 27.7947 15.3415 28.0875 15.8627 28.6088C16.384 29.13 16.6768 29.837 16.6768 30.5741V33.3536H13.8973V30.5741H9.72813V33.3536H6.94866V30.5741Z" fill="#12AE65"/>
</svg>
